<?xml version="1.0" encoding="UTF-8"?>
<svg width="36px" height="30px" viewBox="0 0 36 30" version="1.1" xmlns="http://www.w3.org/2000/svg" xmlns:xlink="http://www.w3.org/1999/xlink">
    <!-- Generator: Sketch 41.2 (35397) - http://www.bohemiancoding.com/sketch -->
    <title>cloud-computing</title>
    <desc>Created with Sketch.</desc>
    <defs></defs>
    <g id="site" stroke="none" stroke-width="1" fill="none" fill-rule="evenodd" opacity="0.600000024">
        <g id="Home-page.-Final" transform="translate(-804.000000, -1164.000000)" fill="#177EBC">
            <g id="Why-Sentinel?" transform="translate(92.000000, 810.000000)">
                <g id="Sensitive-Data" transform="translate(712.000000, 318.000000)">
                    <g id="cloud-computing" transform="translate(0.000000, 36.000000)">
                        <g id="Capa_1">
                            <g id="Group">
                                <path d="M30.2664062,9.7164 C29.9535,4.3164 25.5484688,0 20.237375,0 C17.0133125,0 13.891375,1.5978 11.9569375,4.2048 C11.9124063,4.1814 11.8649063,4.1652 11.8197813,4.143 C11.7034063,4.086 11.5858438,4.032 11.4653125,3.9834 C11.39525,3.9552 11.324,3.93 11.25275,3.9048 C11.1357813,3.8634 11.0170313,3.8268 10.8965,3.7938 C10.82525,3.7746 10.7545937,3.7548 10.68275,3.738 C10.552125,3.708 10.419125,3.6852 10.2849375,3.6654 C10.2225937,3.6558 10.1608437,3.6438 10.0979062,3.6366 C9.901375,3.6138 9.70246875,3.6 9.5,3.6 C6.5538125,3.6 4.15625,6.0222 4.15625,9 C4.15625,9.0774 4.161,9.153 4.16575,9.2286 C1.69634375,10.5888 0,13.4394 0,16.2924 C0,20.5422 3.4211875,24 7.62671875,24 L10.6875,24 C11.01525,24 11.28125,23.7318 11.28125,23.4 C11.28125,23.0682 11.01525,22.8 10.6875,22.8 L7.62671875,22.8 C4.07609375,22.8 1.1875,19.881 1.1875,16.2924 C1.1875,13.8 2.79359375,11.2128 5.0065,10.1406 L5.34375,9.978 L5.34375,9.6 C5.34375,9.5262 5.3485,9.4506 5.35265625,9.375 L5.358,9.2712 L5.350875,9.15 C5.3473125,9.1002 5.34375,9.0504 5.34375,9 C5.34375,6.6846 7.208125,4.8 9.5,4.8 C9.68346875,4.8 9.8645625,4.8162 10.0444688,4.8402 C10.0907813,4.8462 10.1370938,4.854 10.1834063,4.8618 C10.3419375,4.8882 10.4980938,4.923 10.651875,4.9674 C10.6726563,4.9734 10.6940313,4.9776 10.7148125,4.9836 C10.8840313,5.0358 11.0490938,5.1024 11.2105938,5.1762 C11.2521563,5.1954 11.293125,5.2158 11.3340938,5.2362 C11.4771875,5.3076 11.6173125,5.3862 11.7526875,5.475 C12.89625,6.2244 13.65625,7.5234 13.65625,9 C13.65625,9.3318 13.92225,9.6 14.25,9.6 C14.57775,9.6 14.84375,9.3318 14.84375,9 C14.84375,7.3476 14.1039375,5.8686 12.94375,4.8774 C14.6454375,2.6274 17.449125,1.2 20.237375,1.2 C24.835375,1.2 28.6555625,4.881 29.053375,9.5322 C28.4465625,9.489 27.5375313,9.4668 26.6290938,9.6066 C26.3049063,9.6564 26.08225,9.9624 26.1315313,10.29 C26.1760625,10.587 26.429,10.8 26.7175625,10.8 C26.74725,10.8 26.7775313,10.7976 26.8078125,10.7928 C28.1283125,10.5912 29.5052188,10.7802 29.5889375,10.7916 C32.3534375,11.3232 34.4375,13.8966 34.4375,16.7832 C34.4375,20.1006 31.7662187,22.8 28.483375,22.8 L26.125,22.8 C25.79725,22.8 25.53125,23.0682 25.53125,23.4 C25.53125,23.7318 25.79725,24 26.125,24 L28.483375,24 C32.421125,24 35.625,20.7624 35.625,16.7832 C35.625,13.4898 33.3527188,10.536 30.2664062,9.7164 Z" id="Shape"></path>
                                <path d="M24.34375,22.8 C24.016,22.8 23.75,23.0682 23.75,23.4 C23.75,26.3778 21.3524375,28.8 18.40625,28.8 C15.4600625,28.8 13.0625,26.3778 13.0625,23.4 C13.0625,20.4222 15.4600625,18 18.40625,18 C20.1875,18 21.7769688,18.9036 22.7471562,20.4 L19,20.4 C18.67225,20.4 18.40625,20.6682 18.40625,21 C18.40625,21.3318 18.67225,21.6 19,21.6 L23.75,21.6 C23.7511875,21.6 23.7517813,21.5994 23.7529688,21.5994 C23.7945312,21.5994 23.8360938,21.5832 23.8776563,21.5742 C23.9132813,21.5658 23.951875,21.5652 23.985125,21.5508 C23.9863125,21.5502 23.9875,21.5508 23.9880938,21.5502 C24.0082813,21.5412 24.0213437,21.5244 24.03975,21.5136 C24.0878438,21.486 24.1359375,21.4578 24.1745313,21.4182 C24.2006563,21.3906 24.2160938,21.3564 24.2362813,21.3252 C24.2576563,21.2922 24.2837813,21.2628 24.298625,21.2256 C24.3188125,21.1752 24.3241563,21.1206 24.3306875,21.0666 C24.3330625,21.0432 24.34375,21.0234 24.34375,21 L24.34375,20.9934 L24.34375,20.9922 L24.34375,16.2 C24.34375,15.8682 24.07775,15.6 23.75,15.6 C23.42225,15.6 23.15625,15.8682 23.15625,16.2 L23.15625,18.96 C21.9604375,17.5968 20.26825,16.8 18.40625,16.8 C14.8051562,16.8 11.875,19.761 11.875,23.4 C11.875,27.039 14.8051562,30 18.40625,30 C22.0073437,30 24.9375,27.039 24.9375,23.4 C24.9375,23.0682 24.6715,22.8 24.34375,22.8 Z" id="Shape"></path>
                            </g>
                        </g>
                    </g>
                </g>
            </g>
        </g>
    </g>
</svg>