<?xml version="1.0" encoding="UTF-8" standalone="no"?>
<svg width="209px" height="22px" viewBox="0 0 209 22" version="1.1" xmlns="http://www.w3.org/2000/svg" xmlns:xlink="http://www.w3.org/1999/xlink">
    <!-- Generator: Sketch 41.2 (35397) - http://www.bohemiancoding.com/sketch -->
    <title>SentinelSoftware</title>
    <desc>Created with Sketch.</desc>
    <defs></defs>
    <g id="Page-1" stroke="none" stroke-width="1" fill="none" fill-rule="evenodd">
        <path d="M0.837890613,15.9468751 C1.03124999,19.14375 3.76406245,21.2964844 7.65703114,21.2964844 C11.7691405,21.2964844 14.3988279,19.1566407 14.3988279,15.8953126 C14.3988279,13.304297 12.8261717,11.8734376 9.08789049,10.932422 L7.07695302,10.416797 C4.34414056,9.72070329 3.18398433,8.77968768 3.18398433,7.1812502 C3.18398433,5.13164085 5.0917968,3.7007815 7.66992176,3.7007815 C10.3124999,3.7007815 12.1687498,5.09296898 12.3363279,7.19414082 L14.1023435,7.19414082 C13.9992185,4.24218774 11.3437498,2.10234402 7.72148426,2.10234402 C4.06054682,2.10234402 1.35351561,4.24218774 1.35351561,7.24570332 C1.35351561,9.69492204 2.88749996,11.1515626 6.32929678,12.0281251 L8.63671863,12.6210939 C11.3953123,13.3171876 12.5941404,14.3484376 12.5941404,16.0886719 C12.5941404,18.1769532 10.5960936,19.6980469 7.81171864,19.6980469 C4.89843743,19.6980469 2.79726558,18.1769532 2.60390621,15.9468751 L0.837890613,15.9468751 Z M28.0199183,18.7032 C27.4039153,19.6360047 26.6427229,20.304798 25.7363184,20.7096 C24.8299139,21.114402 23.8311239,21.3168 22.7399184,21.3168 C21.8071138,21.3168 20.9623222,21.1584016 20.2055185,20.8416 C19.4487147,20.5247984 18.7975212,20.0804029 18.2519185,19.5084 C17.7063158,18.9363972 17.2883199,18.258804 16.9979185,17.4756001 C16.7075171,16.6923961 16.5623185,15.8256048 16.5623185,14.8752001 C16.5623185,13.9599955 16.711917,13.115204 17.0111185,12.3408001 C17.31032,11.5663963 17.7327158,10.893203 18.2783185,10.3212002 C18.8239212,9.7491973 19.4663148,9.3004018 20.2055185,8.97480017 C20.9447221,8.64919855 21.7631139,8.48640018 22.6607184,8.48640018 C23.5935231,8.48640018 24.4163148,8.64919855 25.1291184,8.97480017 C25.8419219,9.3004018 26.4403159,9.73159748 26.9243184,10.2684002 C27.4083208,10.8052028 27.7735171,11.4167967 28.0199183,12.1032001 C28.2663196,12.7896036 28.3895183,13.4847966 28.3895183,14.1888001 L28.3895183,15.2976001 L18.1463185,15.2976001 C18.1463185,15.6320017 18.2123178,16.0587975 18.3443185,16.5780001 C18.4763191,17.0972027 18.7183167,17.6031976 19.0703185,18.096 C19.4223202,18.5888025 19.8931155,19.0111983 20.4827185,19.3632 C21.0723214,19.7152018 21.8335138,19.8912 22.7663184,19.8912 C23.5759225,19.8912 24.3591146,19.697602 25.1159184,19.3104 C25.8727222,18.9231981 26.4535163,18.3952034 26.8583184,17.7264 L28.0199183,18.7032 Z M26.8055184,13.8720001 C26.8055184,13.3263974 26.6955195,12.8160025 26.4755184,12.3408001 C26.2555173,11.8655978 25.9563203,11.4476019 25.5779184,11.0868001 C25.1995165,10.7259983 24.750721,10.4400012 24.2315184,10.2288002 C23.7123158,10.0175991 23.1623213,9.91200016 22.5815184,9.91200016 C21.7191141,9.91200016 21.0019213,10.0879984 20.4299185,10.4400002 C19.8579156,10.7920019 19.4047201,11.1967979 19.0703185,11.6544001 C18.7359168,12.1120024 18.4983192,12.556398 18.3575185,12.9876001 C18.2167178,13.4188023 18.1463185,13.7135993 18.1463185,13.8720001 L26.8055184,13.8720001 Z M31.8271183,12.2352001 C31.8271183,12.006399 31.8183184,11.7292018 31.8007183,11.4036001 C31.7831182,11.0779985 31.7699183,10.7480018 31.7611183,10.4136002 C31.7523182,10.0791985 31.7391184,9.76680161 31.7215183,9.47640017 C31.7039182,9.18599872 31.6951183,8.96160097 31.6951183,8.80320018 L33.2791183,8.80320018 C33.2967184,9.26080246 33.3099182,9.70079805 33.3187183,10.1232002 C33.3275183,10.5456023 33.3495181,10.8183995 33.3847183,10.9416001 L33.4639183,10.9416001 C33.7807198,10.2727968 34.3087146,9.69640258 35.0479182,9.21240017 C35.7871219,8.72839776 36.6495133,8.48640018 37.6351182,8.48640018 C38.5855229,8.48640018 39.3599152,8.63599868 39.9583182,8.93520017 C40.5567212,9.23440167 41.0275164,9.62599774 41.3707181,10.1100002 C41.7139199,10.5940026 41.9515175,11.152797 42.0835181,11.7864001 C42.2155188,12.4200033 42.2815181,13.0711968 42.2815181,13.7400001 L42.2815181,21 L40.6975182,21 L40.6975182,13.8192001 C40.6975182,13.3263976 40.6535186,12.8468024 40.5655182,12.3804001 C40.4775177,11.9139978 40.3235193,11.496002 40.1035182,11.1264001 C39.8835171,10.7567983 39.5755202,10.4620013 39.1795182,10.2420002 C38.7835162,10.0219991 38.2687214,9.91200016 37.6351182,9.91200016 C37.0543153,9.91200016 36.5043208,10.0131991 35.9851182,10.2156002 C35.4659156,10.4180012 35.0171201,10.7259981 34.6387182,11.1396001 C34.2603164,11.5532022 33.9611194,12.072397 33.7411183,12.6972001 C33.5211172,13.3220032 33.4111183,14.0567959 33.4111183,14.9016001 L33.4111183,21 L31.8271183,21 L31.8271183,12.2352001 Z M52.371918,10.2288002 L48.887118,10.2288002 L48.887118,18.1752 C48.887118,18.7208028 49.0367165,19.1431985 49.335918,19.4424 C49.6351195,19.7416015 50.0487154,19.8912 50.576718,19.8912 C50.8759195,19.8912 51.1795165,19.8516004 51.487518,19.7724 C51.7955195,19.6931996 52.0903166,19.5920006 52.371918,19.4688 L52.503918,20.8944 C52.2047165,21.0000005 51.8615199,21.0967996 51.474318,21.1848 C51.0871161,21.2728004 50.7439195,21.3168 50.444718,21.3168 C49.8815152,21.3168 49.3975201,21.2332008 48.992718,21.066 C48.587916,20.8987992 48.2623193,20.6744014 48.015918,20.3928 C47.7695168,20.1111986 47.5891186,19.7812019 47.4747181,19.4028 C47.3603175,19.0243981 47.3031181,18.6152022 47.3031181,18.1752 L47.3031181,10.2288002 L44.6631181,10.2288002 L44.6631181,8.80320018 L47.3031181,8.80320018 L47.3031181,5.29200023 L48.887118,5.29200023 L48.887118,8.80320018 L52.371918,8.80320018 L52.371918,10.2288002 Z M55.3871179,8.80320018 L56.9711179,8.80320018 L56.9711179,21 L55.3871179,21 L55.3871179,8.80320018 Z M54.9911179,3.97200025 C54.9911179,3.63759858 55.1055168,3.3560014 55.3343179,3.12720026 C55.5631191,2.89839912 55.8447163,2.78400026 56.1791179,2.78400026 C56.5135196,2.78400026 56.7951168,2.89839912 57.0239179,3.12720026 C57.2527191,3.3560014 57.3671179,3.63759858 57.3671179,3.97200025 C57.3671179,4.30640191 57.2527191,4.58799909 57.0239179,4.81680023 C56.7951168,5.04560137 56.5135196,5.16000023 56.1791179,5.16000023 C55.8447163,5.16000023 55.5631191,5.04560137 55.3343179,4.81680023 C55.1055168,4.58799909 54.9911179,4.30640191 54.9911179,3.97200025 Z M61.3591178,12.2352001 C61.3591178,12.006399 61.3503179,11.7292018 61.3327178,11.4036001 C61.3151178,11.0779985 61.3019179,10.7480018 61.2931178,10.4136002 C61.2843178,10.0791985 61.2711179,9.76680161 61.2535179,9.47640017 C61.2359178,9.18599872 61.2271179,8.96160097 61.2271179,8.80320018 L62.8111178,8.80320018 C62.8287179,9.26080246 62.8419178,9.70079805 62.8507178,10.1232002 C62.8595179,10.5456023 62.8815177,10.8183995 62.9167178,10.9416001 L62.9959178,10.9416001 C63.3127194,10.2727968 63.8407141,9.69640258 64.5799178,9.21240017 C65.3191215,8.72839776 66.1815129,8.48640018 67.1671178,8.48640018 C68.1175225,8.48640018 68.8919147,8.63599868 69.4903177,8.93520017 C70.0887207,9.23440167 70.559516,9.62599774 70.9027177,10.1100002 C71.2459194,10.5940026 71.483517,11.152797 71.6155177,11.7864001 C71.7475184,12.4200033 71.8135177,13.0711968 71.8135177,13.7400001 L71.8135177,21 L70.2295177,21 L70.2295177,13.8192001 C70.2295177,13.3263976 70.1855182,12.8468024 70.0975177,12.3804001 C70.0095173,11.9139978 69.8555188,11.496002 69.6355177,11.1264001 C69.4155166,10.7567983 69.1075197,10.4620013 68.7115177,10.2420002 C68.3155158,10.0219991 67.8007209,9.91200016 67.1671178,9.91200016 C66.5863149,9.91200016 66.0363204,10.0131991 65.5171178,10.2156002 C64.9979152,10.4180012 64.5491197,10.7259981 64.1707178,11.1396001 C63.7923159,11.5532022 63.4931189,12.072397 63.2731178,12.6972001 C63.0531167,13.3220032 62.9431178,14.0567959 62.9431178,14.9016001 L62.9431178,21 L61.3591178,21 L61.3591178,12.2352001 Z M86.7087175,18.7032 C86.0927144,19.6360047 85.331522,20.304798 84.4251175,20.7096 C83.518713,21.114402 82.519923,21.3168 81.4287176,21.3168 C80.4959129,21.3168 79.6511214,21.1584016 78.8943176,20.8416 C78.1375138,20.5247984 77.4863203,20.0804029 76.9407176,19.5084 C76.3951149,18.9363972 75.9771191,18.258804 75.6867176,17.4756001 C75.3963162,16.6923961 75.2511176,15.8256048 75.2511176,14.8752001 C75.2511176,13.9599955 75.4007161,13.115204 75.6999176,12.3408001 C75.9991191,11.5663963 76.4215149,10.893203 76.9671176,10.3212002 C77.5127203,9.7491973 78.1551139,9.3004018 78.8943176,8.97480017 C79.6335213,8.64919855 80.4519131,8.48640018 81.3495176,8.48640018 C82.2823222,8.48640018 83.105114,8.64919855 83.8179175,8.97480017 C84.5307211,9.3004018 85.1291151,9.73159748 85.6131175,10.2684002 C86.0971199,10.8052028 86.4623163,11.4167967 86.7087175,12.1032001 C86.9551187,12.7896036 87.0783175,13.4847966 87.0783175,14.1888001 L87.0783175,15.2976001 L76.8351176,15.2976001 C76.8351176,15.6320017 76.901117,16.0587975 77.0331176,16.5780001 C77.1651183,17.0972027 77.4071159,17.6031976 77.7591176,18.096 C78.1111194,18.5888025 78.5819146,19.0111983 79.1715176,19.3632 C79.7611205,19.7152018 80.5223129,19.8912 81.4551176,19.8912 C82.2647216,19.8912 83.0479137,19.697602 83.8047175,19.3104 C84.5615213,18.9231981 85.1423155,18.3952034 85.5471175,17.7264 L86.7087175,18.7032 Z M85.4943175,13.8720001 C85.4943175,13.3263974 85.3843186,12.8160025 85.1643175,12.3408001 C84.9443164,11.8655978 84.6451194,11.4476019 84.2667175,11.0868001 C83.8883156,10.7259983 83.4395201,10.4400012 82.9203175,10.2288002 C82.4011149,10.0175991 81.8511205,9.91200016 81.2703176,9.91200016 C80.4079133,9.91200016 79.6907204,10.0879984 79.1187176,10.4400002 C78.5467147,10.7920019 78.0935193,11.1967979 77.7591176,11.6544001 C77.4247159,12.1120024 77.1871183,12.556398 77.0463176,12.9876001 C76.9055169,13.4188023 76.8351176,13.7135993 76.8351176,13.8720001 L85.4943175,13.8720001 Z M90.7799174,1.04160029 L92.3639174,1.04160029 L92.3639174,21 L90.7799174,21 L90.7799174,1.04160029 Z M95.4906986,15.7019532 C95.6067142,19.1953125 98.4555423,21.3222656 102.928589,21.3222656 C107.543433,21.3222656 110.469605,19.040625 110.469605,15.4312501 C110.469605,12.5953126 108.845386,10.9968751 105.119995,10.1976564 L102.864136,9.72070329 C100.724292,9.23085955 99.8219485,8.5863283 99.8219485,7.4390627 C99.8219485,6.05976584 101.111011,5.14453148 103.031714,5.14453148 C104.978198,5.14453148 106.357495,6.09843772 106.486402,7.67109394 L110.134448,7.67109394 C110.069995,4.30664087 107.350073,2.07656277 103.018823,2.07656277 C98.8680423,2.07656277 95.9031986,4.34531274 95.9031986,7.77421894 C95.9031986,10.4941408 97.5918704,12.2343751 101.020777,12.9691407 L103.444214,13.4976564 C105.687183,14.0003907 106.576636,14.6707032 106.576636,15.8824219 C106.576636,17.2488282 105.158667,18.2414063 103.083277,18.2414063 C101.020777,18.2414063 99.4223392,17.2359376 99.2418704,15.7019532 L95.4906986,15.7019532 Z M112.131495,14.5848001 C112.131495,13.563995 112.316293,12.6400043 112.685895,11.8128001 C113.055497,10.985596 113.561492,10.2772031 114.203895,9.68760016 C114.846298,9.09799722 115.603091,8.64480176 116.474295,8.32800018 C117.3455,8.0111986 118.27389,7.85280019 119.259495,7.85280019 C120.2451,7.85280019 121.173491,8.0111986 122.044695,8.32800018 C122.915899,8.64480176 123.672692,9.09799722 124.315095,9.68760016 C124.957498,10.2772031 125.463493,10.985596 125.833095,11.8128001 C126.202697,12.6400043 126.387495,13.563995 126.387495,14.5848001 C126.387495,15.6056052 126.202697,16.5295959 125.833095,17.3568001 C125.463493,18.1840042 124.957498,18.8923971 124.315095,19.482 C123.672692,20.071603 122.915899,20.5247984 122.044695,20.8416 C121.173491,21.1584016 120.2451,21.3168 119.259495,21.3168 C118.27389,21.3168 117.3455,21.1584016 116.474295,20.8416 C115.603091,20.5247984 114.846298,20.071603 114.203895,19.482 C113.561492,18.8923971 113.055497,18.1840042 112.685895,17.3568001 C112.316293,16.5295959 112.131495,15.6056052 112.131495,14.5848001 Z M116.091495,14.5848001 C116.091495,15.5528049 116.368692,16.3359971 116.923095,16.9344001 C117.477498,17.532803 118.25629,17.832 119.259495,17.832 C120.2627,17.832 121.041492,17.532803 121.595895,16.9344001 C122.150298,16.3359971 122.427495,15.5528049 122.427495,14.5848001 C122.427495,13.6167953 122.150298,12.8336031 121.595895,12.2352001 C121.041492,11.6367971 120.2627,11.3376001 119.259495,11.3376001 C118.25629,11.3376001 117.477498,11.6367971 116.923095,12.2352001 C116.368692,12.8336031 116.091495,13.6167953 116.091495,14.5848001 Z M129.983495,11.3376001 L127.369895,11.3376001 L127.369895,8.16960019 L129.983495,8.16960019 L129.983495,5.89920022 C129.983495,5.19519671 130.045094,4.53080336 130.168295,3.90600025 C130.291496,3.28119713 130.529093,2.73120264 130.881095,2.25600027 C131.233097,1.7807979 131.739092,1.40680165 132.399095,1.13400029 C133.059098,0.861198927 133.92589,0.724800293 134.999495,0.724800293 C135.404297,0.724800293 135.800293,0.742400117 136.187495,0.777600292 C136.574697,0.812800468 136.953093,0.874399851 137.322695,0.96240029 L137.137895,4.31520024 C136.909094,4.2271998 136.697896,4.16120046 136.504295,4.11720024 C136.310694,4.07320002 136.090696,4.05120024 135.844295,4.05120024 C135.210692,4.05120024 134.735496,4.18759888 134.418695,4.46040024 C134.101893,4.7332016 133.943495,5.291996 133.943495,6.13680021 L133.943495,8.16960019 L136.873895,8.16960019 L136.873895,11.3376001 L133.943495,11.3376001 L133.943495,21 L129.983495,21 L129.983495,11.3376001 Z M147.017095,11.3376001 L143.532295,11.3376001 L143.532295,15.6144001 C143.532295,15.9664018 143.549895,16.2875986 143.585095,16.5780001 C143.620295,16.8684015 143.699494,17.119199 143.822695,17.3304001 C143.945895,17.5416011 144.135093,17.7043995 144.390295,17.8188 C144.645496,17.9332006 144.984293,17.9904 145.406695,17.9904 C145.617896,17.9904 145.895093,17.9684003 146.238295,17.9244 C146.581496,17.8803998 146.841094,17.7792008 147.017095,17.6208 L147.017095,20.9208 C146.577093,21.0792008 146.119497,21.1847997 145.644295,21.2376 C145.169092,21.2904003 144.702697,21.3168 144.245095,21.3168 C143.576291,21.3168 142.960298,21.2464007 142.397095,21.1056 C141.833892,20.9647993 141.341097,20.7404015 140.918695,20.4324 C140.496293,20.1243985 140.166296,19.7240025 139.928695,19.2312 C139.691094,18.7383976 139.572295,18.1400036 139.572295,17.4360001 L139.572295,11.3376001 L137.037895,11.3376001 L137.037895,8.16960019 L139.572295,8.16960019 L139.572295,4.36800024 L143.532295,4.36800024 L143.532295,8.16960019 L147.017095,8.16960019 L147.017095,11.3376001 Z M147.392295,8.16960019 L151.616295,8.16960019 L154.229895,16.2216001 L154.282695,16.2216001 L156.473895,8.16960019 L160.803495,8.16960019 L163.179494,16.2216001 L163.232294,16.2216001 L165.634694,8.16960019 L169.647494,8.16960019 L165.080294,21 L161.173095,21 L158.506695,12.4728001 L158.453895,12.4728001 L156.077895,21 L152.091495,21 L147.392295,8.16960019 Z M178.866694,19.3896 L178.813894,19.3896 C178.373892,20.0760034 177.788698,20.5687985 177.058294,20.868 C176.327891,21.1672015 175.557898,21.3168 174.748294,21.3168 C174.149891,21.3168 173.573497,21.2332008 173.019094,21.066 C172.464692,20.8987992 171.976296,20.6480017 171.553894,20.3136 C171.131492,19.9791983 170.797096,19.5656025 170.550694,19.0728 C170.304293,18.5799976 170.181094,18.0080033 170.181094,17.3568001 C170.181094,16.6175964 170.317493,15.9928026 170.590294,15.4824001 C170.863096,14.9719975 171.232692,14.5496018 171.699094,14.2152001 C172.165497,13.8807984 172.697891,13.621201 173.296294,13.4364001 C173.894697,13.2515992 174.515091,13.1152006 175.157494,13.0272001 C175.799898,12.9391997 176.442291,12.8864002 177.084694,12.8688001 C177.727097,12.8512 178.321092,12.8424001 178.866694,12.8424001 C178.866694,12.1383966 178.615897,11.5796022 178.114294,11.1660001 C177.612692,10.7523981 177.018698,10.5456002 176.332294,10.5456002 C175.681091,10.5456002 175.087097,10.6819988 174.550294,10.9548001 C174.013492,11.2276015 173.533896,11.6015978 173.111494,12.0768001 L170.999494,9.91200016 C171.738698,9.22559674 172.601089,8.71080189 173.586694,8.36760018 C174.572299,8.02439847 175.593089,7.85280019 176.649094,7.85280019 C177.8107,7.85280019 178.765491,7.99799874 179.513494,8.28840018 C180.261498,8.57880163 180.859892,9.00559736 181.308694,9.56880017 C181.757496,10.132003 182.069893,10.8227961 182.245894,11.6412001 C182.421895,12.4596042 182.509894,13.4055947 182.509894,14.4792001 L182.509894,21 L178.866694,21 L178.866694,19.3896 Z M177.889894,15.3768001 C177.590693,15.3768001 177.216697,15.3899999 176.767894,15.4164001 C176.319092,15.4428002 175.887896,15.5175995 175.474294,15.6408001 C175.060692,15.7640007 174.708696,15.9487988 174.418294,16.1952001 C174.127893,16.4416013 173.982694,16.7847979 173.982694,17.2248001 C173.982694,17.7000024 174.185092,18.0519989 174.589894,18.2808 C174.994696,18.5096012 175.417092,18.624 175.857094,18.624 C176.244296,18.624 176.618292,18.5712006 176.979094,18.4656 C177.339896,18.3599995 177.661093,18.210401 177.942694,18.0168 C178.224296,17.8231991 178.448693,17.5768015 178.615894,17.2776001 C178.783095,16.9783986 178.866694,16.6264021 178.866694,16.2216001 L178.866694,15.3768001 L177.889894,15.3768001 Z M184.891494,8.16960019 L188.851494,8.16960019 L188.851494,10.2288002 L188.904294,10.2288002 C189.326696,9.43679621 189.828291,8.84280216 190.409094,8.44680018 C190.989897,8.05079821 191.72029,7.85280019 192.600294,7.85280019 C192.829095,7.85280019 193.057893,7.8616001 193.286694,7.87920019 C193.515495,7.89680028 193.726693,7.93199992 193.920294,7.98480019 L193.920294,11.6016001 C193.638693,11.5135997 193.361495,11.4476004 193.088694,11.4036001 C192.815893,11.3595999 192.529896,11.3376001 192.230694,11.3376001 C191.47389,11.3376001 190.875496,11.4431991 190.435494,11.6544001 C189.995492,11.8656012 189.656695,12.1603982 189.419094,12.5388001 C189.181493,12.917202 189.027494,13.3703975 188.957094,13.8984001 C188.886694,14.4264027 188.851494,15.0071969 188.851494,15.6408001 L188.851494,21 L184.891494,21 L184.891494,8.16960019 Z M207.680294,18.7824 C207.046691,19.5920041 206.245899,20.2167978 205.277894,20.6568 C204.309889,21.0968022 203.306699,21.3168 202.268294,21.3168 C201.282689,21.3168 200.354298,21.1584016 199.483094,20.8416 C198.61189,20.5247984 197.855097,20.071603 197.212694,19.482 C196.570291,18.8923971 196.064296,18.1840042 195.694694,17.3568001 C195.325092,16.5295959 195.140294,15.6056052 195.140294,14.5848001 C195.140294,13.563995 195.325092,12.6400043 195.694694,11.8128001 C196.064296,10.985596 196.570291,10.2772031 197.212694,9.68760016 C197.855097,9.09799722 198.61189,8.64480176 199.483094,8.32800018 C200.354298,8.0111986 201.282689,7.85280019 202.268294,7.85280019 C203.183498,7.85280019 204.01509,8.0111986 204.763094,8.32800018 C205.511098,8.64480176 206.144691,9.09799722 206.663894,9.68760016 C207.183096,10.2772031 207.583492,10.985596 207.865094,11.8128001 C208.146695,12.6400043 208.287494,13.563995 208.287494,14.5848001 L208.287494,15.8256001 L199.100294,15.8256001 C199.258695,16.5824038 199.601891,17.1851978 200.129894,17.634 C200.657897,18.0828023 201.30909,18.3072 202.083494,18.3072 C202.734697,18.3072 203.284692,18.1620015 203.733494,17.8716 C204.182296,17.5811986 204.573892,17.2072023 204.908294,16.7496001 L207.680294,18.7824 Z M204.327494,13.1328001 C204.345094,12.4639968 204.125096,11.8920025 203.667494,11.4168001 C203.209892,10.9415978 202.620298,10.7040001 201.898694,10.7040001 C201.458692,10.7040001 201.071496,10.7743994 200.737094,10.9152001 C200.402692,11.0560008 200.116695,11.236399 199.879094,11.4564001 C199.641493,11.6764012 199.456695,11.9315987 199.324694,12.2220001 C199.192693,12.5124016 199.117894,12.8159985 199.100294,13.1328001 L204.327494,13.1328001 Z" id="SentinelSoftware" fill="#233058"></path>
    </g>
</svg>