<?xml version="1.0" encoding="UTF-8"?>
<svg width="30px" height="30px" viewBox="0 0 30 30" version="1.1" xmlns="http://www.w3.org/2000/svg" xmlns:xlink="http://www.w3.org/1999/xlink">
    <!-- Generator: Sketch 41.2 (35397) - http://www.bohemiancoding.com/sketch -->
    <title>server</title>
    <desc>Created with Sketch.</desc>
    <defs></defs>
    <g id="site" stroke="none" stroke-width="1" fill="none" fill-rule="evenodd" opacity="0.600000024">
        <g id="Home-page.-Final" transform="translate(-807.000000, -1400.000000)" fill="#177EBC">
            <g id="Why-Sentinel?" transform="translate(92.000000, 810.000000)">
                <g id="Change-Management" transform="translate(715.000000, 555.000000)">
                    <g id="server" transform="translate(0.000000, 35.000000)">
                        <g id="Capa_1">
                            <g id="Group">
                                <path d="M29.594,22.4315 L28.872,22.293 C28.5335,22.228 28.267,22.0065 28.141,21.685 C28.0145,21.364 28.0595,21.0205 28.2635,20.7425 L28.717,20.1245 C28.863,19.9255 28.842,19.6495 28.667,19.475 L27.6875,18.496 C27.518,18.327 27.2515,18.3015 27.0535,18.4355 L26.445,18.8475 C26.16,19.042 25.814,19.0735 25.4975,18.935 C25.1815,18.7975 24.97,18.5225 24.9175,18.181 L24.801,17.4235 C24.764,17.18 24.554,17 24.3075,17 L22.9225,17 C22.683,17 22.4765,17.1705 22.4315,17.406 L22.2525,18.3385 C22.189,18.6695 21.9735,18.9335 21.662,19.0625 C21.3495,19.193 21.0115,19.157 20.732,18.968 L19.946,18.436 C19.7475,18.302 19.4815,18.3275 19.312,18.4965 L18.3325,19.4755 C18.1575,19.65 18.1365,19.9255 18.2825,20.125 L18.736,20.743 C18.94,21.021 18.985,21.3645 18.8585,21.6855 C18.7325,22.007 18.466,22.2285 18.1275,22.2935 L17.4055,22.432 C17.1705,22.477 17,22.683 17,22.923 L17,24.308 C17,24.5545 17.18,24.7645 17.424,24.802 L18.1815,24.9185 C18.523,24.971 18.7975,25.1825 18.9355,25.4985 C19.0735,25.815 19.0415,26.16 18.848,26.446 L18.436,27.0545 C18.3015,27.2525 18.327,27.519 18.4965,27.6885 L19.4755,28.668 C19.6495,28.842 19.925,28.8635 20.125,28.718 L20.743,28.2645 C21.0205,28.061 21.365,28.0155 21.6855,28.142 C22.007,28.268 22.2285,28.5345 22.2935,28.873 L22.432,29.595 C22.477,29.8295 22.683,30 22.923,30 L24.308,30 C24.5545,30 24.7645,29.82 24.802,29.576 L24.884,29.0435 C24.9365,28.6995 25.16,28.4155 25.4805,28.2825 C25.8025,28.1495 26.161,28.193 26.441,28.3985 L26.8755,28.7175 C27.0755,28.8635 27.351,28.842 27.525,28.6675 L28.504,27.688 C28.6735,27.5185 28.699,27.2525 28.5645,27.054 L28.1525,26.4455 C27.959,26.16 27.927,25.8145 28.065,25.498 C28.2025,25.182 28.4775,24.9705 28.819,24.918 L29.5765,24.8015 C29.82,24.764 30,24.554 30,24.3075 L30,22.9225 C30,22.683 29.8295,22.477 29.594,22.4315 Z M29,23.879 L28.6665,23.9305 C27.9895,24.0345 27.422,24.4715 27.1485,25.099 C26.8745,25.727 26.9405,26.44 27.3245,27.0065 L27.505,27.273 L27.121,27.657 L27.0325,27.592 C26.4675,27.1785 25.745,27.0915 25.098,27.3585 C24.451,27.6265 24.002,28.1995 23.8955,28.891 L23.879,29 L23.336,29 L23.2755,28.6835 C23.146,28.0105 22.688,27.46 22.051,27.21 C21.4135,26.96 20.7035,27.053 20.151,27.457 L19.879,27.6565 L19.495,27.2725 L19.6755,27.006 C20.0595,26.439 20.125,25.726 19.8515,25.0985 C19.578,24.471 19.01,24.034 18.3335,23.93 L18,23.879 L18,23.336 L18.3165,23.2755 C18.9895,23.146 19.54,22.688 19.79,22.051 C20.04,21.4135 19.9475,20.7035 19.543,20.151 L19.3435,19.879 L19.7275,19.495 L20.172,19.796 C20.7255,20.172 21.427,20.2425 22.0455,19.9865 C22.664,19.73 23.109,19.1845 23.2355,18.527 L23.336,18 L23.879,18 L23.9305,18.3335 C24.0345,19.0105 24.4715,19.578 25.099,19.8515 C25.727,20.1255 26.44,20.0595 27.0065,19.6755 L27.273,19.495 L27.657,19.879 L27.4575,20.151 C27.0525,20.703 26.9605,21.413 27.2105,22.051 C27.4605,22.688 28.0115,23.146 28.684,23.2755 L29,23.336 L29,23.879 Z" id="Shape"></path>
                                <path d="M23.5,21 C22.1215,21 21,22.1215 21,23.5 C21,24.8785 22.1215,26 23.5,26 C24.8785,26 26,24.8785 26,23.5 C26,22.1215 24.8785,21 23.5,21 Z M23.5,25 C22.673,25 22,24.327 22,23.5 C22,22.673 22.673,22 23.5,22 C24.327,22 25,22.673 25,23.5 C25,24.327 24.327,25 23.5,25 Z" id="Shape"></path>
                                <path d="M5.25,3 C4.0095,3 3,4.0095 3,5.25 C3,6.4905 4.0095,7.5 5.25,7.5 C6.4905,7.5 7.5,6.4905 7.5,5.25 C7.5,4.0095 6.4905,3 5.25,3 Z M5.25,6.5 C4.5605,6.5 4,5.9395 4,5.25 C4,4.5605 4.5605,4 5.25,4 C5.9395,4 6.5,4.5605 6.5,5.25 C6.5,5.9395 5.9395,6.5 5.25,6.5 Z" id="Shape"></path>
                                <circle id="Oval" cx="25" cy="4.5" r="0.5"></circle>
                                <circle id="Oval" cx="23" cy="4.5" r="0.5"></circle>
                                <circle id="Oval" cx="26" cy="6" r="0.5"></circle>
                                <circle id="Oval" cx="24" cy="6" r="0.5"></circle>
                                <circle id="Oval" cx="21" cy="4.5" r="0.5"></circle>
                                <circle id="Oval" cx="22" cy="6" r="0.5"></circle>
                                <circle id="Oval" cx="19" cy="4.5" r="0.5"></circle>
                                <circle id="Oval" cx="20" cy="6" r="0.5"></circle>
                                <circle id="Oval" cx="17" cy="4.5" r="0.5"></circle>
                                <circle id="Oval" cx="18" cy="6" r="0.5"></circle>
                                <path d="M30,8.196 L30,2.304 C30,1.0335 28.9665,0 27.696,0 L2.304,0 C1.0335,0 0,1.0335 0,2.304 L0,8.1955 C0,8.93 0.3515,9.5775 0.8885,10 C0.3515,10.4225 0,11.07 0,11.804 L0,17.6955 C0,18.43 0.3515,19.0775 0.8885,19.5 C0.3515,19.9225 0,20.57 0,21.304 L0,27.1955 C0,28.4665 1.0335,29.5 2.304,29.5 L16.5,29.5 L16.5,28.5 L2.304,28.5 C1.585,28.5 1,27.915 1,27.196 L1,21.304 C1,20.585 1.585,20 2.304,20 L14,20 L14,19 L2.304,19 C1.585,19 1,18.415 1,17.696 L1,11.804 C1,11.085 1.585,10.5 2.304,10.5 L27.6955,10.5 C28.415,10.5 29,11.085 29,11.804 L29,17.5 L30,17.5 L30,11.804 C30,11.0695 29.6485,10.422 29.1115,10 C29.6485,9.5775 30,8.93 30,8.196 Z M2.304,9.5 C1.585,9.5 1,8.915 1,8.196 L1,2.304 C1,1.585 1.585,1 2.304,1 L27.6955,1 C28.415,1 29,1.585 29,2.304 L29,8.1955 C29,8.915 28.415,9.5 27.696,9.5 L2.304,9.5 Z" id="Shape"></path>
                                <path d="M3,14.75 C3,15.9905 4.0095,17 5.25,17 C6.4905,17 7.5,15.9905 7.5,14.75 C7.5,13.5095 6.4905,12.5 5.25,12.5 C4.0095,12.5 3,13.5095 3,14.75 Z M6.5,14.75 C6.5,15.4395 5.9395,16 5.25,16 C4.5605,16 4,15.4395 4,14.75 C4,14.0605 4.5605,13.5 5.25,13.5 C5.9395,13.5 6.5,14.0605 6.5,14.75 Z" id="Shape"></path>
                                <circle id="Oval" cx="25" cy="14" r="0.5"></circle>
                                <circle id="Oval" cx="23" cy="14" r="0.5"></circle>
                                <circle id="Oval" cx="26" cy="15.5" r="0.5"></circle>
                                <circle id="Oval" cx="24" cy="15.5" r="0.5"></circle>
                                <circle id="Oval" cx="21" cy="14" r="0.5"></circle>
                                <circle id="Oval" cx="22" cy="15.5" r="0.5"></circle>
                                <circle id="Oval" cx="19" cy="14" r="0.5"></circle>
                                <circle id="Oval" cx="20" cy="15.5" r="0.5"></circle>
                                <circle id="Oval" cx="17" cy="14" r="0.5"></circle>
                                <circle id="Oval" cx="18" cy="15.5" r="0.5"></circle>
                                <path d="M3,24.25 C3,25.4905 4.0095,26.5 5.25,26.5 C6.4905,26.5 7.5,25.4905 7.5,24.25 C7.5,23.0095 6.4905,22 5.25,22 C4.0095,22 3,23.0095 3,24.25 Z M6.5,24.25 C6.5,24.9395 5.9395,25.5 5.25,25.5 C4.5605,25.5 4,24.9395 4,24.25 C4,23.5605 4.5605,23 5.25,23 C5.9395,23 6.5,23.5605 6.5,24.25 Z" id="Shape"></path>
                            </g>
                        </g>
                    </g>
                </g>
            </g>
        </g>
    </g>
</svg>