<?xml version="1.0" encoding="UTF-8"?>
<svg width="35px" height="35px" viewBox="0 0 35 35" version="1.1" xmlns="http://www.w3.org/2000/svg" xmlns:xlink="http://www.w3.org/1999/xlink">
    <!-- Generator: Sketch 41.2 (35397) - http://www.bohemiancoding.com/sketch -->
    <title>stopwatch</title>
    <desc>Created with Sketch.</desc>
    <defs></defs>
    <g id="site" stroke="none" stroke-width="1" fill="none" fill-rule="evenodd" opacity="0.600000024">
        <g id="Home-page.-Final" transform="translate(-804.000000, -1280.000000)" fill="#177EBC">
            <g id="Why-Sentinel?" transform="translate(92.000000, 810.000000)">
                <g id="Audit-History" transform="translate(712.000000, 436.666667)">
                    <g id="stopwatch" transform="translate(0.000000, 33.333333)">
                        <g id="Capa_1">
                            <g id="Group">
                                <path d="M28.0315574,29.9691803 C29.0333607,28.8686885 29.6495902,27.4113115 29.6495902,25.8093443 C29.6495902,22.3936885 26.8708197,19.614918 23.4551639,19.614918 C20.0395082,19.614918 17.2607377,22.3936885 17.2607377,25.8093443 C17.2607377,29.225 20.0395082,32.0037705 23.4551639,32.0037705 C24.8557377,32.0037705 26.145,31.5309836 27.1840984,30.7437705 L30.6272951,34.3453279 C30.7397541,34.4629508 30.8906557,34.522623 31.0421311,34.522623 C31.185,34.522623 31.3272951,34.4698361 31.4386066,34.3636885 C31.6669672,34.1445082 31.6755738,33.7813115 31.4563934,33.552377 L28.0315574,29.9691803 Z M18.4082787,25.8087705 C18.4082787,23.0259836 20.672377,20.7618852 23.4551639,20.7618852 C26.2379508,20.7618852 28.5020492,23.0259836 28.5020492,25.8087705 C28.5020492,28.5915574 26.2379508,30.8556557 23.4551639,30.8556557 C20.672377,30.8556557 18.4082787,28.5915574 18.4082787,25.8087705 Z" id="Shape"></path>
                                <path d="M16.6869672,14.930082 C15.8607377,15.1446721 15.2140984,15.8027869 15.0253279,16.6393443 L10.9492623,16.6393443 C10.6319672,16.6393443 10.3754918,16.8958197 10.3754918,17.2131148 C10.3754918,17.5304098 10.6319672,17.7868852 10.9492623,17.7868852 L15.0689344,17.7868852 C15.3489344,18.7381967 16.219918,19.4387705 17.2607377,19.4387705 C18.5264754,19.4387705 19.5558197,18.4094262 19.5558197,17.1436885 C19.5558197,16.0770492 18.8213934,15.1865574 17.8345082,14.930082 L17.8345082,9.11090164 C17.8345082,8.79360656 17.5780328,8.53713115 17.2607377,8.53713115 C16.9434426,8.53713115 16.6869672,8.79360656 16.6869672,9.11090164 L16.6869672,14.930082 Z M18.4082787,17.1436885 C18.4082787,17.7765574 17.8936066,18.2912295 17.2607377,18.2912295 C16.6278689,18.2912295 16.1131967,17.7765574 16.1131967,17.1436885 C16.1131967,16.5108197 16.6278689,15.9961475 17.2607377,15.9961475 C17.8936066,15.9961475 18.4082787,16.5108197 18.4082787,17.1436885 Z" id="Shape"></path>
                                <path d="M17.2607377,5.66827869 C17.5780328,5.66827869 17.8345082,5.41180328 17.8345082,5.0945082 L17.8345082,4.5207377 C17.8345082,4.20344262 17.5780328,3.94696721 17.2607377,3.94696721 C16.9434426,3.94696721 16.6869672,4.20344262 16.6869672,4.5207377 L16.6869672,5.0945082 C16.6869672,5.41180328 16.9440164,5.66827869 17.2607377,5.66827869 Z" id="Shape"></path>
                                <path d="M29.8836885,17.717459 C30.2009836,17.717459 30.457459,17.4609836 30.457459,17.1436885 C30.457459,16.8263934 30.2009836,16.569918 29.8836885,16.569918 L29.309918,16.569918 C28.992623,16.569918 28.7361475,16.8263934 28.7361475,17.1436885 C28.7361475,17.4609836 28.992623,17.717459 29.309918,17.717459 L29.8836885,17.717459 Z" id="Shape"></path>
                                <path d="M4.63778689,16.569918 C4.3204918,16.569918 4.06401639,16.8263934 4.06401639,17.1436885 C4.06401639,17.4609836 4.3204918,17.717459 4.63778689,17.717459 L5.21155738,17.717459 C5.52885246,17.717459 5.78532787,17.4609836 5.78532787,17.1436885 C5.78532787,16.8263934 5.52885246,16.569918 5.21155738,16.569918 L4.63778689,16.569918 Z" id="Shape"></path>
                                <path d="M26.1868852,9.02885246 L26.592541,8.62319672 C26.8168852,8.39885246 26.8168852,8.03622951 26.592541,7.81188525 C26.3681967,7.58754098 26.0055738,7.58754098 25.7812295,7.81188525 L25.3755738,8.21754098 C25.1512295,8.44188525 25.1512295,8.8045082 25.3755738,9.02885246 C25.487459,9.1407377 25.6343443,9.19696721 25.7812295,9.19696721 C25.9281148,9.19696721 26.075,9.14131148 26.1868852,9.02885246 Z" id="Shape"></path>
                                <path d="M8.33516393,25.2579508 L7.9295082,25.6636066 C7.70516393,25.8879508 7.70516393,26.2505738 7.9295082,26.474918 C8.04139344,26.5868033 8.18827869,26.6430328 8.33516393,26.6430328 C8.48204918,26.6430328 8.62893443,26.5868033 8.74081967,26.474918 L9.14647541,26.0692623 C9.37081967,25.844918 9.37081967,25.4822951 9.14647541,25.2579508 C8.92213115,25.0336066 8.55893443,25.0336066 8.33516393,25.2579508 Z" id="Shape"></path>
                                <path d="M9.14647541,8.21754098 L8.74081967,7.81188525 C8.51647541,7.58754098 8.15385246,7.58754098 7.9295082,7.81188525 C7.70516393,8.03622951 7.70516393,8.39885246 7.9295082,8.62319672 L8.33516393,9.02885246 C8.44704918,9.1407377 8.59393443,9.19696721 8.74081967,9.19696721 C8.88770492,9.19696721 9.03459016,9.1407377 9.14647541,9.02885246 C9.37081967,8.80508197 9.37081967,8.44188525 9.14647541,8.21754098 Z" id="Shape"></path>
                                <path d="M17.2607377,0 C7.76942623,0 0.0476229508,7.72180328 0.0476229508,17.2131148 C0.0476229508,25.1454918 5.41811475,32.0163934 13.1083607,33.9218852 C13.1542623,33.9333607 13.2007377,33.9385246 13.2466393,33.9385246 C13.5036885,33.9385246 13.7377869,33.7635246 13.8031967,33.502459 C13.8795082,33.194918 13.6918852,32.8839344 13.3843443,32.807623 C6.20762295,31.030082 1.19516393,24.6170492 1.19516393,17.2131148 C1.19516393,8.35467213 8.40229508,1.14754098 17.2607377,1.14754098 C26.1191803,1.14754098 33.3263115,8.35467213 33.3263115,17.2131148 C33.3263115,19.2029508 32.962541,21.1509016 32.2459016,23.0047541 C32.1317213,23.3002459 32.2786066,23.632459 32.5740984,23.7466393 C32.8684426,23.8608197 33.2018033,23.7133607 33.3159836,23.4184426 C34.0842623,21.432623 34.4738525,19.3446721 34.4738525,17.2136885 C34.4738525,7.72180328 26.7520492,0 17.2607377,0 Z" id="Shape"></path>
                            </g>
                        </g>
                    </g>
                </g>
            </g>
        </g>
    </g>
</svg>